<svg width="192" height="71" viewBox="0 0 192 71" fill="none" xmlns="http://www.w3.org/2000/svg">
<path d="M25.13 26.965C23.345 30.465 20.65 32.53 17.5 32.985C11.34 33.93 6.3 30.71 4.41 24.55C2.52 18.355 4.69 11.285 10.675 9.99C15.26 9.01 19.425 12.02 21.98 16.08H22.225L23.275 12.09C20.3 10.13 18.025 9.15 14.245 9.15C7.315 9.15 1.05 14.75 1.05 21.68C1.05 28.61 7.035 34.21 13.93 34.21C20.125 34.21 23.485 30.99 25.375 27.07L25.13 26.965ZM36.9641 17.165C32.2741 17.165 27.4791 20.665 27.4791 26.44C27.4791 31.34 31.5041 34.21 36.2291 34.21C40.9191 34.21 45.7141 30.535 45.7141 24.935C45.7141 20.105 41.6541 17.165 36.9641 17.165ZM38.9241 33.58C34.9341 34.77 31.6441 31.76 30.4191 27.56C29.1941 23.325 30.2791 18.95 34.2691 17.795C38.2591 16.64 41.5491 19.615 42.7741 23.815C43.9991 28.05 42.9141 32.425 38.9241 33.58ZM54.2032 17.165C50.3882 17.165 49.1282 19.23 48.8482 21.505C48.0082 28.365 60.2232 26.335 59.5582 30.92C59.3482 32.425 57.4582 33.72 54.9382 33.72C51.8232 33.72 49.1982 30.815 48.0082 28.365H47.8332L47.0982 31.865C48.9882 33.265 51.0882 34.21 53.9232 34.21C57.8432 34.21 60.4332 32.145 60.6432 29.38C61.0282 23.675 49.2332 24.935 49.7232 20.245C49.8982 18.81 51.2282 17.48 53.6082 17.48C55.6032 17.48 57.8432 19.65 58.9282 22.625H59.1032L59.8032 19.405C58.4032 18.32 56.0232 17.165 54.2032 17.165ZM88.7135 31.69C88.5735 30.395 88.2585 26.72 87.8735 23.325C87.4535 19.23 85.4935 17.165 82.7285 17.165C79.1935 17.165 77.8985 20.315 77.4785 23.71L77.4435 23.325C77.3035 19.475 74.9935 17.165 72.2985 17.165C68.0985 17.165 67.0485 21.225 66.6635 24.935V17.165H66.4185L63.1285 17.935C63.1285 17.935 63.1285 18.11 63.1285 18.18C63.8285 18.285 63.9335 18.635 63.9335 19.86V31.69C63.9335 32.915 63.6535 33.44 63.1285 33.755C63.1285 33.825 63.1285 34 63.1285 34H67.4685C67.4685 34 67.4685 33.825 67.4685 33.755C66.9435 33.44 66.6635 32.915 66.6635 31.69V28.82C66.6635 25.845 66.8385 18.53 70.7585 17.795C73.4885 17.27 74.7135 20.14 74.7135 22.8V31.69C74.7135 32.915 74.4685 33.44 73.9435 33.755C73.9435 33.825 73.9435 34 73.9435 34H78.2485C78.2485 34 78.2485 33.825 78.2485 33.755C77.7235 33.44 77.4785 32.915 77.4785 31.69V27.595C77.5135 23.92 77.9335 18.495 81.1535 17.795C83.8835 17.2 84.8985 20.175 85.1785 22.8C85.3535 24.62 85.8435 30.535 85.9835 31.69C86.0885 32.845 85.9135 33.44 85.3885 33.755C85.3885 33.825 85.3885 34 85.3885 34H89.6935C89.6935 34 89.6935 33.825 89.6935 33.755C89.1685 33.44 88.8535 32.95 88.7135 31.69ZM94.9985 31.69V17.165H94.7535L91.4635 17.935C91.4635 17.935 91.4635 18.11 91.4635 18.18C92.1285 18.285 92.2335 18.635 92.2335 19.86V31.69C92.2335 32.915 91.9885 33.44 91.4635 33.755C91.4635 33.825 91.4635 34 91.4635 34H95.8035C95.8035 34 95.8035 33.825 95.8035 33.755C95.2435 33.44 94.9985 32.915 94.9985 31.69ZM93.5285 14.33C94.4385 14.33 95.1735 13.595 95.1735 12.685C95.1735 11.775 94.4385 11.04 93.5285 11.04C92.6185 11.04 91.8835 11.775 91.8835 12.685C91.8835 13.595 92.6185 14.33 93.5285 14.33ZM101.485 28.295C100.015 24.095 101.59 18.565 105.895 17.585C109.185 16.815 112.51 19.825 113.35 21.925H113.56L114.085 19.02C112.265 18.075 109.465 17.165 107.47 17.165C103.62 17.165 98.1252 20 98.3002 26.055C98.4402 31.83 103.27 34.455 108.1 34.21C112.265 33.965 114.33 31.235 115.415 29.275L115.205 29.17C114.645 30.15 112.755 33.23 109.29 33.58C105.755 33.93 102.78 31.97 101.485 28.295Z" fill="white"/>
<path d="M113.595 37.5H100.4C100.4 37.5 100.4 37.71 100.4 37.78C100.925 38.095 101.17 38.62 101.17 39.845V59.69C101.17 60.915 100.925 61.44 100.4 61.755C100.4 61.825 100.4 62 100.4 62H104.705C104.705 62 104.705 61.825 104.705 61.755C104.18 61.44 103.935 60.915 103.935 59.69V49.505L111.985 50.275V48.49L103.935 49.225V37.78H106.875C110.76 37.78 112.965 40.09 114.54 41.875L114.715 41.77L113.595 37.5ZM120.341 59.69V45.165H120.096L116.806 45.935C116.806 45.935 116.806 46.11 116.806 46.18C117.471 46.285 117.576 46.635 117.576 47.86V59.69C117.576 60.915 117.331 61.44 116.806 61.755C116.806 61.825 116.806 62 116.806 62H121.146C121.146 62 121.146 61.825 121.146 61.755C120.586 61.44 120.341 60.915 120.341 59.69ZM118.871 42.33C119.781 42.33 120.516 41.595 120.516 40.685C120.516 39.775 119.781 39.04 118.871 39.04C117.961 39.04 117.226 39.775 117.226 40.685C117.226 41.595 117.961 42.33 118.871 42.33ZM127.143 59.69V36.765H126.898L123.608 37.5C123.608 37.5 123.608 37.71 123.608 37.78C124.273 37.885 124.378 38.235 124.378 39.46V59.69C124.378 60.915 124.133 61.44 123.608 61.755C123.608 61.825 123.608 62 123.608 62H127.913C127.913 62 127.913 61.825 127.913 61.755C127.388 61.44 127.143 60.915 127.143 59.69ZM142.424 55.805C141.794 58.5 140.639 61.265 138.329 61.58C135.354 61.965 134.514 59.62 134.514 56.575V45.445H138.644V45.165H130.909C133.009 45.06 135.669 43.065 135.669 40.37H132.904C132.904 42.05 132.659 45.165 129.684 45.165V45.445H131.749V56.05C131.749 60.18 133.674 62.21 136.789 62.21C140.464 62.21 141.934 59.165 142.599 55.875L142.424 55.805ZM151.906 45.165C148.196 45.165 147.216 50.31 146.866 54.545V45.165H146.586L143.296 45.935C143.296 45.935 143.296 46.11 143.296 46.18C143.996 46.285 144.101 46.635 144.101 47.86V59.69C144.101 60.915 143.856 61.44 143.296 61.755C143.296 61.825 143.296 62 143.296 62H147.636C147.636 62 147.636 61.825 147.636 61.755C147.111 61.44 146.866 60.915 146.866 59.69V58.325C146.866 55.35 147.321 46.32 150.751 45.795C152.641 45.515 153.621 48.105 153.691 50.1L153.936 50.24L156.071 47.23C154.881 45.83 153.796 45.165 151.906 45.165ZM166.281 45.165C161.591 45.165 156.796 48.665 156.796 54.44C156.796 59.34 160.821 62.21 165.546 62.21C170.236 62.21 175.031 58.535 175.031 52.935C175.031 48.105 170.971 45.165 166.281 45.165ZM168.241 61.58C164.251 62.77 160.961 59.76 159.736 55.56C158.511 51.325 159.596 46.95 163.586 45.795C167.576 44.64 170.866 47.615 172.091 51.815C173.316 56.05 172.231 60.425 168.241 61.58ZM183.521 45.165C179.706 45.165 178.446 47.23 178.166 49.505C177.326 56.365 189.541 54.335 188.876 58.92C188.666 60.425 186.776 61.72 184.256 61.72C181.141 61.72 178.516 58.815 177.326 56.365H177.151L176.416 59.865C178.306 61.265 180.406 62.21 183.241 62.21C187.161 62.21 189.751 60.145 189.961 57.38C190.346 51.675 178.551 52.935 179.041 48.245C179.216 46.81 180.546 45.48 182.926 45.48C184.921 45.48 187.161 47.65 188.246 50.625H188.421L189.121 47.405C187.721 46.32 185.341 45.165 183.521 45.165Z" fill="white"/>
</svg>
