<svg width="1080" height="1080" viewBox="0 0 1080 1080" fill="none" xmlns="http://www.w3.org/2000/svg">
<rect width="1080" height="1080" rx="540" fill="#161619"/>
<path d="M257.5 278.829L540 150.228L797.827 267.597L553.793 379.103C532.347 388.903 532.37 419.38 553.832 429.146L822.5 551.405V802.285L540 930.622L282.206 813.508L526.752 701.749L519.477 685.832L526.752 701.749C548.205 691.944 548.169 661.453 526.694 651.699L519.456 667.632L526.693 651.699L257.5 529.43V278.829ZM826.898 800.287L826.879 800.296C826.885 800.293 826.891 800.29 826.898 800.287ZM536.898 932.031C536.904 932.029 536.91 932.026 536.916 932.023L536.898 932.031ZM543.084 932.023C543.09 932.026 543.096 932.029 543.102 932.031L543.084 932.023Z" fill="url(#paint0_linear_42_252)" stroke="white" stroke-width="35" stroke-linejoin="round"/>
<g style="mix-blend-mode:multiply">
<path d="M257.5 278.829L540 150.228L797.827 267.597L553.793 379.103C532.347 388.903 532.37 419.38 553.832 429.146L822.5 551.405V802.285L540 930.622L282.206 813.508L526.752 701.749L519.477 685.832L526.752 701.749C548.205 691.944 548.169 661.453 526.694 651.699L519.456 667.632L526.693 651.699L257.5 529.43V278.829ZM826.898 800.287L826.879 800.296C826.885 800.293 826.891 800.29 826.898 800.287ZM536.898 932.031C536.904 932.029 536.91 932.026 536.916 932.023L536.898 932.031ZM543.084 932.023C543.09 932.026 543.096 932.029 543.102 932.031L543.084 932.023Z" fill="url(#paint1_linear_42_252)"/>
<path d="M257.5 278.829L540 150.228L797.827 267.597L553.793 379.103C532.347 388.903 532.37 419.38 553.832 429.146L822.5 551.405V802.285L540 930.622L282.206 813.508L526.752 701.749L519.477 685.832L526.752 701.749C548.205 691.944 548.169 661.453 526.694 651.699L519.456 667.632L526.693 651.699L257.5 529.43V278.829ZM826.898 800.287L826.879 800.296C826.885 800.293 826.891 800.29 826.898 800.287ZM536.898 932.031C536.904 932.029 536.91 932.026 536.916 932.023L536.898 932.031ZM543.084 932.023C543.09 932.026 543.096 932.029 543.102 932.031L543.084 932.023Z" stroke="white" stroke-width="35" stroke-linejoin="round"/>
</g>
<path d="M257.5 278.829L540 150.228L797.827 267.597L553.793 379.103C532.347 388.903 532.37 419.38 553.832 429.146L822.5 551.405V802.285L540 930.622L282.206 813.508L526.752 701.749L519.477 685.832L526.752 701.749C548.205 691.944 548.169 661.453 526.694 651.699L519.456 667.632L526.693 651.699L257.5 529.43V278.829ZM826.898 800.287L826.879 800.296C826.885 800.293 826.891 800.29 826.898 800.287ZM536.898 932.031C536.904 932.029 536.91 932.026 536.916 932.023L536.898 932.031ZM543.084 932.023C543.09 932.026 543.096 932.029 543.102 932.031L543.084 932.023Z" stroke="white" stroke-width="35" stroke-linejoin="round"/>
<g filter="url(#filter0_b_42_252)">
<path d="M544.143 132.886L820.044 258.483C827.847 262.035 827.855 273.117 820.057 276.68L561.066 395.02C553.267 398.584 553.276 409.666 561.08 413.218L834.142 537.476C837.71 539.1 840 542.658 840 546.578V807.115C840 811.038 837.707 814.598 834.136 816.22L544.136 947.964C541.508 949.158 538.492 949.158 535.864 947.964L259.981 822.633C252.173 819.086 252.16 807.999 259.961 804.434L519.477 685.832C527.279 682.267 527.266 671.179 519.456 667.632L245.865 543.365C242.293 541.743 240 538.183 240 534.26V274.002C240 270.083 242.29 266.525 245.857 264.901L535.857 132.886C538.489 131.688 541.511 131.688 544.143 132.886Z" fill="white" fill-opacity="0.5"/>
</g>
<defs>
<filter id="filter0_b_42_252" x="190" y="81.9874" width="700" height="916.872" filterUnits="userSpaceOnUse" color-interpolation-filters="sRGB">
<feFlood flood-opacity="0" result="BackgroundImageFix"/>
<feGaussianBlur in="BackgroundImage" stdDeviation="25"/>
<feComposite in2="SourceAlpha" operator="in" result="effect1_backgroundBlur_42_252"/>
<feBlend mode="normal" in="SourceGraphic" in2="effect1_backgroundBlur_42_252" result="shape"/>
</filter>
<linearGradient id="paint0_linear_42_252" x1="240" y1="540.422" x2="840" y2="540.422" gradientUnits="userSpaceOnUse">
<stop stop-color="#72C6EF"/>
<stop offset="1" stop-color="#004E8F"/>
</linearGradient>
<linearGradient id="paint1_linear_42_252" x1="240" y1="540.422" x2="840" y2="540.422" gradientUnits="userSpaceOnUse">
<stop stop-color="#FFA17F"/>
<stop offset="1" stop-color="#00223E"/>
</linearGradient>
</defs>
</svg>
